<svg width="289" height="289" viewBox="0 0 289 289" fill="none" xmlns="http://www.w3.org/2000/svg">
<rect x="1.5859" y="146.182" width="202" height="202" transform="rotate(-45.7108 1.5859 146.182)" fill="#FFE818" stroke="#FFE818" stroke-width="2"/>
<circle cx="143" cy="144" r="110" fill="white"/>
<circle cx="144" cy="144" r="99" fill="#006ED9" fill-opacity="0.67" stroke="#FFE818" stroke-width="2"/>
<g filter="url(#filter0_d_118_82)">
<path d="M83.2488 157.738L82.8563 162H65.8656L66.2021 153.925L65.8656 134.972H83.0245L83.3609 135.421L82.9684 139.682L76.4637 139.458H71.5852L71.4731 145.963L76.1834 146.075L80.5572 145.963L80.8937 146.355L80.5011 150.617L75.7348 150.505L71.417 150.561L71.3609 153.421L71.4731 157.514L76.2395 157.57L82.9123 157.29L83.2488 157.738ZM101.437 151.234C103.68 154.71 105.848 157.85 107.941 160.654L107.829 161.271C105.997 161.944 104.147 162.336 102.278 162.449L101.661 161.944C99.6423 158.467 97.9975 155.458 96.7265 152.916H92.6891V153.421L92.9134 162H87.1937L87.5302 153.925L87.1937 134.972L97.6236 134.916C100.465 134.916 102.652 135.607 104.184 136.991C105.717 138.374 106.483 140.355 106.483 142.935C106.483 144.654 106.035 146.243 105.138 147.701C104.24 149.159 103.007 150.336 101.437 151.234ZM100.483 143.495C100.483 140.654 98.9134 139.196 95.7732 139.121L92.9134 139.29L92.8012 148.43L96.9508 148.654C99.3433 147.832 100.521 146.112 100.483 143.495ZM122.911 162H117.191L117.528 154.486L117.472 152.916L108.836 134.972H114.892L115.453 136.822L120.051 147.14H120.5L125.546 136.991L126.332 134.972H132.219L122.743 152.804L122.631 154.486L122.911 162ZM149.094 141.252C147.075 139.794 145.168 139.065 143.374 139.065C142.252 139.065 141.355 139.364 140.682 139.963C140.009 140.561 139.673 141.271 139.673 142.093C139.673 142.879 140.028 143.551 140.738 144.112C141.486 144.673 142.645 145.327 144.215 146.075C145.785 146.785 147.056 147.439 148.028 148.037C150.346 149.458 151.505 151.458 151.505 154.037C151.505 155.57 151.075 156.972 150.215 158.243C149.393 159.514 148.215 160.523 146.682 161.271C145.15 162.019 143.224 162.393 140.907 162.393C138.589 162.393 136.066 161.813 133.337 160.654L134.178 155.383L134.795 154.991C135.916 155.963 137.131 156.71 138.439 157.234C139.785 157.757 141.019 158.019 142.14 158.019C143.299 158.019 144.215 157.72 144.888 157.121C145.561 156.523 145.897 155.794 145.897 154.935C145.897 154.075 145.524 153.364 144.776 152.804C144.028 152.243 142.851 151.607 141.243 150.897C139.673 150.15 138.421 149.477 137.486 148.879C135.206 147.495 134.066 145.514 134.066 142.935C134.066 141.364 134.477 139.963 135.299 138.729C136.159 137.458 137.337 136.449 138.832 135.701C140.365 134.953 142.178 134.598 144.271 134.636C146.365 134.673 148.552 135.14 150.832 136.037L149.935 140.916L149.094 141.252ZM161.878 162H156.159L156.495 153.925L156.159 134.972H161.99L161.654 153.421L161.878 162ZM189.326 152.243C189.363 155.458 188.428 157.963 186.522 159.757C184.615 161.514 181.905 162.393 178.391 162.393C174.914 162.393 172.279 161.533 170.484 159.813C168.727 158.093 167.886 155.645 167.961 152.467L168.017 148.598L167.849 134.972H173.569L173.288 151.738C173.251 155.738 175.045 157.738 178.671 157.738C182.298 157.738 184.092 155.832 184.055 152.019L183.774 134.972H189.606L189.326 152.243ZM218.399 162L217.951 153.813L217.054 143.383H216.605L210.549 159.14H206.175L200.624 143.383H200.287L199.222 153.252L198.605 162H193.839L196.586 134.972H203.147L204.213 138.953L208.53 151.738H208.867L213.409 138.953L214.586 134.972H220.979L223.446 162H218.399Z" fill="white"/>
</g>
<defs>
<filter id="filter0_d_118_82" x="61.8656" y="134.579" width="165.581" height="35.8691" filterUnits="userSpaceOnUse" color-interpolation-filters="sRGB">
<feFlood flood-opacity="0" result="BackgroundImageFix"/>
<feColorMatrix in="SourceAlpha" type="matrix" values="0 0 0 0 0 0 0 0 0 0 0 0 0 0 0 0 0 0 127 0" result="hardAlpha"/>
<feOffset dy="4"/>
<feGaussianBlur stdDeviation="2"/>
<feComposite in2="hardAlpha" operator="out"/>
<feColorMatrix type="matrix" values="0 0 0 0 0 0 0 0 0 0 0 0 0 0 0 0 0 0 0.25 0"/>
<feBlend mode="normal" in2="BackgroundImageFix" result="effect1_dropShadow_118_82"/>
<feBlend mode="normal" in="SourceGraphic" in2="effect1_dropShadow_118_82" result="shape"/>
</filter>
</defs>
</svg>
