<svg width="617" height="253" viewBox="0 0 617 253" fill="none" xmlns="http://www.w3.org/2000/svg">
<g filter="url(#filter0_d_117_66)">
<path d="M151.122 170.346L150.141 181H107.664L108.505 160.813L107.664 113.43H150.561L151.402 114.551L150.421 125.206L134.159 124.645H121.963L121.683 140.907L133.458 141.187L144.393 140.907L145.234 141.888L144.253 152.542L132.337 152.262L121.543 152.402L121.402 159.551L121.683 169.785L133.599 169.925L150.281 169.224L151.122 170.346ZM196.592 154.084C202.199 162.776 207.62 170.626 212.854 177.636L212.573 179.178C207.994 180.86 203.368 181.841 198.695 182.121L197.153 180.86C192.106 172.168 187.994 164.645 184.816 158.29H174.723V159.551L175.283 181H160.984L161.825 160.813L160.984 113.43L187.059 113.29C194.162 113.29 199.629 115.019 203.461 118.477C207.293 121.935 209.209 126.888 209.209 133.336C209.209 137.636 208.087 141.607 205.844 145.252C203.601 148.897 200.517 151.841 196.592 154.084ZM194.209 134.738C194.209 127.636 190.283 123.991 182.433 123.804L175.283 124.224L175.003 147.075L185.377 147.636C191.358 145.579 194.302 141.28 194.209 134.738ZM250.277 181H235.978L236.819 162.215L236.679 158.29L215.09 113.43H230.231L231.633 118.056L243.128 143.85H244.249L256.866 118.477L258.829 113.43H273.548L249.857 158.009L249.576 162.215L250.277 181ZM315.734 129.131C310.687 125.486 305.921 123.664 301.435 123.664C298.631 123.664 296.388 124.411 294.706 125.907C293.024 127.402 292.183 129.178 292.183 131.234C292.183 133.196 293.07 134.879 294.846 136.28C296.715 137.682 299.613 139.318 303.538 141.187C307.463 142.963 310.641 144.598 313.07 146.093C318.865 149.645 321.762 154.645 321.762 161.093C321.762 164.925 320.687 168.43 318.538 171.607C316.482 174.785 313.538 177.308 309.706 179.178C305.874 181.047 301.061 181.981 295.267 181.981C289.472 181.981 283.164 180.533 276.341 177.636L278.444 164.458L279.986 163.477C282.79 165.907 285.827 167.776 289.098 169.084C292.463 170.393 295.547 171.047 298.351 171.047C301.248 171.047 303.538 170.299 305.22 168.804C306.902 167.308 307.743 165.486 307.743 163.336C307.743 161.187 306.809 159.411 304.94 158.009C303.07 156.607 300.127 155.019 296.108 153.243C292.183 151.374 289.052 149.692 286.715 148.196C281.014 144.738 278.164 139.785 278.164 133.336C278.164 129.411 279.192 125.907 281.248 122.822C283.398 119.645 286.341 117.121 290.08 115.252C293.912 113.383 298.444 112.495 303.678 112.589C308.912 112.682 314.379 113.85 320.08 116.093L317.837 128.29L315.734 129.131ZM347.696 181H333.396L334.238 160.813L333.396 113.43H347.976L347.135 159.551L347.696 181ZM416.314 156.607C416.407 164.645 414.071 170.907 409.305 175.393C404.538 179.785 397.763 181.981 388.978 181.981C380.286 181.981 373.697 179.832 369.211 175.533C364.819 171.234 362.716 165.112 362.903 157.168L363.043 147.495L362.622 113.43H376.921L376.221 155.346C376.127 165.346 380.613 170.346 389.679 170.346C398.744 170.346 403.23 165.579 403.136 156.047L402.436 113.43H417.015L416.314 156.607ZM488.999 181L487.877 160.533L485.634 134.458H484.513L469.373 173.85H458.438L444.559 134.458H443.718L441.055 159.131L439.513 181H427.597L434.466 113.43H450.868L453.531 123.383L464.326 155.346H465.167L476.522 123.383L479.466 113.43H495.447L501.616 181H488.999Z" fill="url(#paint0_linear_117_66)" shape-rendering="crispEdges"/>
<path d="M151.122 170.346L152.118 170.438L152.153 170.054L151.922 169.746L151.122 170.346ZM150.141 181V182H151.053L151.136 181.092L150.141 181ZM107.664 181L106.665 180.958L106.622 182H107.664V181ZM108.505 160.813L109.504 160.855L109.506 160.825L109.505 160.795L108.505 160.813ZM107.664 113.43V112.43H106.646L106.664 113.448L107.664 113.43ZM150.561 113.43L151.361 112.83L151.061 112.43H150.561V113.43ZM151.402 114.551L152.398 114.643L152.433 114.26L152.202 113.951L151.402 114.551ZM150.421 125.206L150.387 126.205L151.33 126.238L151.417 125.297L150.421 125.206ZM134.159 124.645L134.194 123.645L134.177 123.645H134.159V124.645ZM121.963 124.645V123.645H120.98L120.963 124.628L121.963 124.645ZM121.683 140.907L120.683 140.889L120.666 141.883L121.659 141.906L121.683 140.907ZM133.458 141.187L133.435 142.187L133.459 142.187L133.484 142.187L133.458 141.187ZM144.393 140.907L145.152 140.256L144.843 139.895L144.367 139.907L144.393 140.907ZM145.234 141.888L146.23 141.98L146.269 141.558L145.993 141.237L145.234 141.888ZM144.253 152.542L144.229 153.542L145.163 153.564L145.249 152.634L144.253 152.542ZM132.337 152.262L132.36 151.262L132.342 151.262L132.324 151.262L132.337 152.262ZM121.543 152.402L121.53 151.402L120.562 151.415L120.543 152.382L121.543 152.402ZM121.402 159.551L120.403 159.532L120.402 159.555L120.403 159.579L121.402 159.551ZM121.683 169.785L120.683 169.812L120.709 170.774L121.671 170.785L121.683 169.785ZM133.599 169.925L133.587 170.925L133.614 170.925L133.641 170.924L133.599 169.925ZM150.281 169.224L151.081 168.624L150.765 168.203L150.239 168.225L150.281 169.224ZM150.126 170.254L149.145 180.908L151.136 181.092L152.118 170.438L150.126 170.254ZM150.141 180H107.664V182H150.141V180ZM108.663 181.042L109.504 160.855L107.506 160.771L106.665 180.958L108.663 181.042ZM109.505 160.795L108.664 113.412L106.664 113.448L107.505 160.831L109.505 160.795ZM107.664 114.43H150.561V112.43H107.664V114.43ZM149.761 114.03L150.602 115.151L152.202 113.951L151.361 112.83L149.761 114.03ZM150.407 114.46L149.425 125.114L151.417 125.297L152.398 114.643L150.407 114.46ZM150.456 124.206L134.194 123.645L134.125 125.644L150.387 126.205L150.456 124.206ZM134.159 123.645H121.963V125.645H134.159V123.645ZM120.963 124.628L120.683 140.889L122.683 140.924L122.963 124.662L120.963 124.628ZM121.659 141.906L133.435 142.187L133.482 140.187L121.707 139.907L121.659 141.906ZM133.484 142.187L144.419 141.906L144.367 139.907L133.433 140.187L133.484 142.187ZM143.634 141.557L144.475 142.539L145.993 141.237L145.152 140.256L143.634 141.557ZM144.238 141.796L143.257 152.45L145.249 152.634L146.23 141.98L144.238 141.796ZM144.276 151.542L132.36 151.262L132.313 153.261L144.229 153.542L144.276 151.542ZM132.324 151.262L121.53 151.402L121.556 153.402L132.35 153.262L132.324 151.262ZM120.543 152.382L120.403 159.532L122.402 159.571L122.542 152.421L120.543 152.382ZM120.403 159.579L120.683 169.812L122.682 169.758L122.402 159.524L120.403 159.579ZM121.671 170.785L133.587 170.925L133.61 168.925L121.694 168.785L121.671 170.785ZM133.641 170.924L150.323 170.223L150.239 168.225L133.557 168.926L133.641 170.924ZM149.481 169.824L150.322 170.946L151.922 169.746L151.081 168.624L149.481 169.824ZM196.592 154.084L196.096 153.216L195.179 153.739L195.752 154.626L196.592 154.084ZM212.854 177.636L213.837 177.814L213.915 177.386L213.655 177.037L212.854 177.636ZM212.573 179.178L212.918 180.116L213.455 179.919L213.557 179.356L212.573 179.178ZM198.695 182.121L198.061 182.895L198.364 183.143L198.755 183.12L198.695 182.121ZM197.153 180.86L196.288 181.362L196.379 181.519L196.519 181.634L197.153 180.86ZM184.816 158.29L185.711 157.843L185.434 157.29H184.816V158.29ZM174.723 158.29V157.29H173.723V158.29H174.723ZM174.723 159.551H173.723V159.564L173.723 159.578L174.723 159.551ZM175.283 181V182H176.31L176.283 180.974L175.283 181ZM160.984 181L159.985 180.958L159.942 182H160.984V181ZM161.825 160.813L162.825 160.855L162.826 160.825L162.825 160.795L161.825 160.813ZM160.984 113.43L160.979 112.43L159.967 112.435L159.985 113.448L160.984 113.43ZM187.059 113.29V112.29L187.054 112.29L187.059 113.29ZM203.461 118.477L202.791 119.219L202.791 119.219L203.461 118.477ZM194.209 134.738H193.209V134.745L193.209 134.753L194.209 134.738ZM182.433 123.804L182.457 122.804L182.415 122.803L182.374 122.805L182.433 123.804ZM175.283 124.224L175.225 123.226L174.295 123.281L174.283 124.212L175.283 124.224ZM175.003 147.075L174.003 147.062L173.991 148.022L174.949 148.073L175.003 147.075ZM185.377 147.636L185.323 148.634L185.518 148.645L185.702 148.581L185.377 147.636ZM195.752 154.626C201.369 163.334 206.803 171.203 212.052 178.234L213.655 177.037C208.437 170.049 203.029 162.218 197.432 153.542L195.752 154.626ZM211.87 177.457L211.589 178.999L213.557 179.356L213.837 177.814L211.87 177.457ZM212.228 178.239C207.737 179.889 203.206 180.849 198.635 181.123L198.755 183.12C203.529 182.833 208.251 181.831 212.918 180.116L212.228 178.239ZM199.328 181.348L197.786 180.086L196.519 181.634L198.061 182.895L199.328 181.348ZM198.017 180.358C192.977 171.677 188.876 164.173 185.711 157.843L183.922 158.737C187.112 165.117 191.235 172.659 196.288 181.362L198.017 180.358ZM184.816 157.29H174.723V159.29H184.816V157.29ZM173.723 158.29V159.551H175.723V158.29H173.723ZM173.723 159.578L174.284 181.026L176.283 180.974L175.722 159.525L173.723 159.578ZM175.283 180H160.984V182H175.283V180ZM161.983 181.042L162.825 160.855L160.826 160.771L159.985 180.958L161.983 181.042ZM162.825 160.795L161.984 113.412L159.985 113.448L160.826 160.831L162.825 160.795ZM160.99 114.43L187.064 114.29L187.054 112.29L160.979 112.43L160.99 114.43ZM187.059 114.29C194.008 114.29 199.202 115.98 202.791 119.219L204.131 117.734C200.056 114.057 194.316 112.29 187.059 112.29V114.29ZM202.791 119.219C206.362 122.442 208.209 127.095 208.209 133.336H210.209C210.209 126.681 208.223 121.427 204.131 117.734L202.791 119.219ZM208.209 133.336C208.209 137.451 207.138 141.242 204.993 144.728L206.696 145.776C209.036 141.973 210.209 137.82 210.209 133.336H208.209ZM204.993 144.728C202.842 148.222 199.884 151.051 196.096 153.216L197.088 154.952C201.15 152.631 204.36 149.572 206.696 145.776L204.993 144.728ZM195.209 134.738C195.209 131.004 194.172 128.013 191.945 125.945C189.736 123.893 186.515 122.901 182.457 122.804L182.409 124.803C186.202 124.894 188.868 125.817 190.584 127.41C192.283 128.987 193.209 131.37 193.209 134.738H195.209ZM182.374 122.805L175.225 123.226L175.342 125.223L182.492 124.802L182.374 122.805ZM174.283 124.212L174.003 147.062L176.003 147.087L176.283 124.237L174.283 124.212ZM174.949 148.073L185.323 148.634L185.431 146.637L175.057 146.076L174.949 148.073ZM185.702 148.581C188.851 147.499 191.278 145.796 192.896 143.434C194.511 141.075 195.257 138.148 195.209 134.724L193.209 134.753C193.253 137.87 192.574 140.364 191.246 142.304C189.919 144.241 187.884 145.716 185.052 146.69L185.702 148.581ZM250.277 181V182H251.315L251.277 180.963L250.277 181ZM235.978 181L234.979 180.955L234.933 182H235.978V181ZM236.819 162.215L237.818 162.26L237.82 162.219L237.819 162.179L236.819 162.215ZM236.679 158.29L237.679 158.254L237.671 158.045L237.58 157.856L236.679 158.29ZM215.09 113.43V112.43H213.499L214.189 113.864L215.09 113.43ZM230.231 113.43L231.188 113.14L230.973 112.43H230.231V113.43ZM231.633 118.056L230.676 118.346L230.694 118.406L230.719 118.463L231.633 118.056ZM243.128 143.85L242.214 144.258L242.479 144.85H243.128V143.85ZM244.249 143.85V144.85H244.869L245.145 144.296L244.249 143.85ZM256.866 118.477L257.762 118.922L257.782 118.881L257.798 118.839L256.866 118.477ZM258.829 113.43V112.43H258.145L257.897 113.067L258.829 113.43ZM273.548 113.43L274.431 113.899L275.212 112.43H273.548V113.43ZM249.857 158.009L248.974 157.54L248.873 157.729L248.859 157.943L249.857 158.009ZM249.576 162.215L248.579 162.148L248.575 162.2L248.577 162.252L249.576 162.215ZM250.277 180H235.978V182H250.277V180ZM236.977 181.045L237.818 162.26L235.82 162.17L234.979 180.955L236.977 181.045ZM237.819 162.179L237.679 158.254L235.68 158.325L235.82 162.251L237.819 162.179ZM237.58 157.856L215.992 112.996L214.189 113.864L235.778 158.723L237.58 157.856ZM215.09 114.43H230.231V112.43H215.09V114.43ZM229.274 113.72L230.676 118.346L232.59 117.766L231.188 113.14L229.274 113.72ZM230.719 118.463L242.214 144.258L244.041 143.443L232.546 117.649L230.719 118.463ZM243.128 144.85H244.249V142.85H243.128V144.85ZM245.145 144.296L257.762 118.922L255.971 118.031L243.354 143.405L245.145 144.296ZM257.798 118.839L259.761 113.792L257.897 113.067L255.934 118.114L257.798 118.839ZM258.829 114.43H273.548V112.43H258.829V114.43ZM272.665 112.961L248.974 157.54L250.74 158.479L274.431 113.899L272.665 112.961ZM248.859 157.943L248.579 162.148L250.574 162.281L250.855 158.076L248.859 157.943ZM248.577 162.252L249.278 181.037L251.277 180.963L250.576 162.178L248.577 162.252ZM315.734 129.131L315.149 129.942L315.595 130.264L316.105 130.059L315.734 129.131ZM294.706 125.907L295.37 126.654L295.37 126.654L294.706 125.907ZM294.846 136.28L294.227 137.065L294.236 137.073L294.246 137.08L294.846 136.28ZM303.538 141.187L303.108 142.09L303.117 142.094L303.126 142.098L303.538 141.187ZM313.07 146.093L312.546 146.945L312.548 146.946L313.07 146.093ZM318.538 171.607L317.709 171.047L317.704 171.056L317.698 171.064L318.538 171.607ZM309.706 179.178L309.268 178.279L309.268 178.279L309.706 179.178ZM276.341 177.636L275.354 177.478L275.231 178.25L275.951 178.556L276.341 177.636ZM278.444 164.458L277.907 163.614L277.528 163.856L277.457 164.3L278.444 164.458ZM279.986 163.477L280.641 162.721L280.078 162.233L279.449 162.633L279.986 163.477ZM289.098 169.084L288.727 170.013L288.736 170.016L289.098 169.084ZM305.22 168.804L304.556 168.056L304.556 168.056L305.22 168.804ZM304.94 158.009L305.54 157.209L305.54 157.209L304.94 158.009ZM296.108 153.243L295.678 154.146L295.691 154.152L295.704 154.158L296.108 153.243ZM286.715 148.196L287.254 147.354L287.244 147.347L287.234 147.341L286.715 148.196ZM281.248 122.822L280.42 122.262L280.416 122.268L281.248 122.822ZM290.08 115.252L289.641 114.354L289.633 114.358L290.08 115.252ZM303.678 112.589L303.66 113.589L303.66 113.589L303.678 112.589ZM320.08 116.093L321.063 116.274L321.212 115.464L320.446 115.163L320.08 116.093ZM317.837 128.29L318.208 129.218L318.721 129.013L318.82 128.471L317.837 128.29ZM316.32 128.32C311.167 124.599 306.199 122.664 301.435 122.664V124.664C305.643 124.664 310.208 126.373 315.149 129.942L316.32 128.32ZM301.435 122.664C298.449 122.664 295.949 123.464 294.042 125.159L295.37 126.654C296.828 125.359 298.814 124.664 301.435 124.664V122.664ZM294.042 125.159C292.169 126.824 291.183 128.863 291.183 131.234H293.183C293.183 129.492 293.879 127.98 295.37 126.654L294.042 125.159ZM291.183 131.234C291.183 133.551 292.252 135.506 294.227 137.065L295.466 135.495C293.889 134.251 293.183 132.841 293.183 131.234H291.183ZM294.246 137.08C296.196 138.543 299.164 140.212 303.108 142.09L303.968 140.284C300.061 138.424 297.235 136.822 295.446 135.48L294.246 137.08ZM303.126 142.098C307.03 143.864 310.166 145.48 312.546 146.945L313.595 145.242C311.115 143.716 307.896 142.061 303.95 140.276L303.126 142.098ZM312.548 146.946C318.065 150.328 320.762 155.015 320.762 161.093H322.762C322.762 154.275 319.665 148.962 313.593 145.241L312.548 146.946ZM320.762 161.093C320.762 164.725 319.747 168.035 317.709 171.047L319.366 172.168C321.627 168.825 322.762 165.125 322.762 161.093H320.762ZM317.698 171.064C315.753 174.07 312.957 176.479 309.268 178.279L310.144 180.076C314.119 178.138 317.21 175.5 319.377 172.151L317.698 171.064ZM309.268 178.279C305.612 180.062 300.961 180.981 295.267 180.981V182.981C301.161 182.981 306.136 182.032 310.144 180.076L309.268 178.279ZM295.267 180.981C289.638 180.981 283.464 179.574 276.732 176.715L275.951 178.556C282.864 181.492 289.306 182.981 295.267 182.981V180.981ZM277.329 177.793L279.432 164.616L277.457 164.3L275.354 177.478L277.329 177.793ZM278.981 165.302L280.523 164.32L279.449 162.633L277.907 163.614L278.981 165.302ZM279.331 164.232C282.215 166.731 285.347 168.661 288.727 170.013L289.47 168.156C286.308 166.891 283.365 165.082 280.641 162.721L279.331 164.232ZM288.736 170.016C292.184 171.357 295.393 172.047 298.351 172.047V170.047C295.701 170.047 292.742 169.428 289.461 168.152L288.736 170.016ZM298.351 172.047C301.421 172.047 303.971 171.252 305.884 169.551L304.556 168.056C303.104 169.347 301.075 170.047 298.351 170.047V172.047ZM305.884 169.551C307.769 167.876 308.743 165.787 308.743 163.336H306.743C306.743 165.185 306.036 166.741 304.556 168.056L305.884 169.551ZM308.743 163.336C308.743 160.842 307.635 158.781 305.54 157.209L304.34 158.809C305.982 160.041 306.743 161.532 306.743 163.336H308.743ZM305.54 157.209C303.578 155.738 300.551 154.113 296.512 152.328L295.704 154.158C299.702 155.925 302.563 157.477 304.34 158.809L305.54 157.209ZM296.538 152.34C292.632 150.48 289.542 148.818 287.254 147.354L286.176 149.039C288.562 150.565 291.734 152.268 295.678 154.146L296.538 152.34ZM287.234 147.341C281.819 144.057 279.164 139.421 279.164 133.336H277.164C277.164 140.149 280.209 145.42 286.197 149.051L287.234 147.341ZM279.164 133.336C279.164 129.596 280.14 126.287 282.08 123.377L280.416 122.268C278.244 125.526 277.164 129.226 277.164 133.336H279.164ZM282.076 123.383C284.121 120.36 286.928 117.946 290.527 116.147L289.633 114.358C285.755 116.297 282.674 118.93 280.42 122.262L282.076 123.383ZM290.518 116.151C294.179 114.365 298.549 113.497 303.66 113.589L303.696 111.589C298.34 111.493 293.644 112.401 289.641 114.354L290.518 116.151ZM303.66 113.589C308.756 113.68 314.105 114.817 319.714 117.024L320.446 115.163C314.653 112.884 309.067 111.685 303.696 111.589L303.66 113.589ZM319.096 115.913L316.853 128.109L318.82 128.471L321.063 116.274L319.096 115.913ZM317.465 127.361L315.363 128.202L316.105 130.059L318.208 129.218L317.465 127.361ZM347.696 181V182H348.722L348.695 180.974L347.696 181ZM333.396 181L332.397 180.958L332.354 182H333.396V181ZM334.238 160.813L335.237 160.855L335.238 160.825L335.237 160.795L334.238 160.813ZM333.396 113.43V112.43H332.379L332.397 113.448L333.396 113.43ZM347.976 113.43L348.976 113.448L348.994 112.43H347.976V113.43ZM347.135 159.551L346.135 159.533L346.135 159.555L346.135 159.578L347.135 159.551ZM347.696 180H333.396V182H347.696V180ZM334.396 181.042L335.237 160.855L333.238 160.771L332.397 180.958L334.396 181.042ZM335.237 160.795L334.396 113.412L332.397 113.448L333.238 160.831L335.237 160.795ZM333.396 114.43H347.976V112.43H333.396V114.43ZM346.976 113.412L346.135 159.533L348.135 159.57L348.976 113.448L346.976 113.412ZM346.135 159.578L346.696 181.026L348.695 180.974L348.134 159.525L346.135 159.578ZM416.314 156.607L415.314 156.591L415.314 156.605L415.314 156.619L416.314 156.607ZM409.305 175.393L409.982 176.128L409.99 176.121L409.305 175.393ZM369.211 175.533L368.512 176.247L368.519 176.255L369.211 175.533ZM362.903 157.168L363.903 157.192L363.903 157.183L362.903 157.168ZM363.043 147.495L364.043 147.51L364.043 147.496L364.043 147.483L363.043 147.495ZM362.622 113.43V112.43H361.61L361.623 113.442L362.622 113.43ZM376.921 113.43L377.921 113.447L377.938 112.43H376.921V113.43ZM376.221 155.346L375.221 155.329L375.221 155.336L376.221 155.346ZM403.136 156.047L404.136 156.037L404.136 156.03L403.136 156.047ZM402.436 113.43V112.43H401.419L401.436 113.446L402.436 113.43ZM417.015 113.43L418.015 113.446L418.031 112.43H417.015V113.43ZM415.314 156.619C415.405 164.445 413.137 170.413 408.619 174.664L409.99 176.121C415.005 171.4 417.41 164.844 417.314 156.596L415.314 156.619ZM408.627 174.657C404.103 178.827 397.602 180.981 388.978 180.981V182.981C397.923 182.981 404.974 180.743 409.982 176.128L408.627 174.657ZM388.978 180.981C380.44 180.981 374.14 178.871 369.903 174.811L368.519 176.255C373.255 180.793 380.132 182.981 388.978 182.981V180.981ZM369.911 174.818C365.77 170.766 363.72 164.944 363.903 157.192L361.903 157.145C361.712 165.28 363.867 171.702 368.512 176.247L369.911 174.818ZM363.903 157.183L364.043 147.51L362.043 147.481L361.903 157.154L363.903 157.183ZM364.043 147.483L363.622 113.418L361.623 113.442L362.043 147.508L364.043 147.483ZM362.622 114.43H376.921V112.43H362.622V114.43ZM375.922 113.413L375.221 155.329L377.22 155.363L377.921 113.447L375.922 113.413ZM375.221 155.336C375.173 160.467 376.295 164.505 378.771 167.264C381.263 170.042 384.966 171.346 389.679 171.346V169.346C385.326 169.346 382.253 168.15 380.259 165.928C378.249 163.687 377.175 160.225 377.221 155.355L375.221 155.336ZM389.679 171.346C394.378 171.346 398.075 170.108 400.57 167.456C403.057 164.814 404.185 160.944 404.136 156.037L402.136 156.057C402.182 160.682 401.113 163.961 399.114 166.086C397.124 168.2 394.045 169.346 389.679 169.346V171.346ZM404.136 156.03L403.435 113.413L401.436 113.446L402.137 156.063L404.136 156.03ZM402.436 114.43H417.015V112.43H402.436V114.43ZM416.015 113.414L415.314 156.591L417.314 156.624L418.015 113.446L416.015 113.414ZM488.999 181L488 181.055L488.052 182H488.999V181ZM487.877 160.533L488.876 160.478L488.875 160.462L488.874 160.447L487.877 160.533ZM485.634 134.458L486.631 134.372L486.552 133.458H485.634V134.458ZM484.513 134.458V133.458H483.826L483.579 134.099L484.513 134.458ZM469.373 173.85V174.85H470.06L470.306 174.209L469.373 173.85ZM458.438 173.85L457.495 174.183L457.73 174.85H458.438V173.85ZM444.559 134.458L445.503 134.126L445.267 133.458H444.559V134.458ZM443.718 134.458V133.458H442.821L442.724 134.351L443.718 134.458ZM441.055 159.131L440.061 159.024L440.059 159.042L440.057 159.061L441.055 159.131ZM439.513 181V182H440.445L440.51 181.07L439.513 181ZM427.597 181L426.602 180.899L426.49 182H427.597V181ZM434.466 113.43V112.43H433.563L433.471 113.329L434.466 113.43ZM450.868 113.43L451.834 113.171L451.635 112.43H450.868V113.43ZM453.531 123.383L452.565 123.642L452.574 123.673L452.584 123.703L453.531 123.383ZM464.326 155.346L463.378 155.666L463.608 156.346H464.326V155.346ZM465.167 155.346V156.346H465.873L466.109 155.681L465.167 155.346ZM476.522 123.383L477.464 123.718L477.473 123.693L477.481 123.667L476.522 123.383ZM479.466 113.43V112.43H478.719L478.507 113.146L479.466 113.43ZM495.447 113.43L496.443 113.339L496.36 112.43H495.447V113.43ZM501.616 181V182H502.711L502.611 180.909L501.616 181ZM489.997 180.945L488.876 160.478L486.879 160.587L488 181.055L489.997 180.945ZM488.874 160.447L486.631 134.372L484.638 134.544L486.881 160.618L488.874 160.447ZM485.634 133.458H484.513V135.458H485.634V133.458ZM483.579 134.099L468.439 173.492L470.306 174.209L485.446 134.817L483.579 134.099ZM469.373 172.85H458.438V174.85H469.373V172.85ZM459.381 173.518L445.503 134.126L443.616 134.79L457.495 174.183L459.381 173.518ZM444.559 133.458H443.718V135.458H444.559V133.458ZM442.724 134.351L440.061 159.024L442.049 159.238L444.713 134.565L442.724 134.351ZM440.057 159.061L438.515 180.93L440.51 181.07L442.052 159.201L440.057 159.061ZM439.513 180H427.597V182H439.513V180ZM428.592 181.101L435.461 113.531L433.471 113.329L426.602 180.899L428.592 181.101ZM434.466 114.43H450.868V112.43H434.466V114.43ZM449.902 113.688L452.565 123.642L454.497 123.125L451.834 113.171L449.902 113.688ZM452.584 123.703L463.378 155.666L465.273 155.026L454.479 123.063L452.584 123.703ZM464.326 156.346H465.167V154.346H464.326V156.346ZM466.109 155.681L477.464 123.718L475.58 123.048L464.225 155.011L466.109 155.681ZM477.481 123.667L480.425 113.714L478.507 113.146L475.563 123.1L477.481 123.667ZM479.466 114.43H495.447V112.43H479.466V114.43ZM494.451 113.521L500.62 181.091L502.611 180.909L496.443 113.339L494.451 113.521ZM501.616 180H488.999V182H501.616V180Z" fill="#044F98"/>
</g>
<path d="M402.138 50.8212C404.664 46.8718 410.747 48.2569 411.314 52.9104L412.858 65.5926C413.113 67.6864 414.655 69.395 416.711 69.8633L429.214 72.7102C434.055 73.8125 434.504 80.5337 429.852 82.2697L419.231 86.2338C417.066 87.0419 415.737 89.2285 416.016 91.5226L417.381 102.73C417.962 107.497 412.142 110.261 408.814 106.8L399.288 96.8935C397.906 95.4566 395.803 94.9777 393.936 95.6747L381.06 100.48C376.561 102.159 372.512 97.1477 375.099 93.102L381.182 83.5909C382.427 81.6439 382.175 79.0973 380.574 77.4315L372.716 69.2598C369.274 65.681 372.589 59.8167 377.43 60.919L389.933 63.7658C391.989 64.2341 394.119 63.3614 395.255 61.5844L402.138 50.8212Z" fill="white"/>
<path d="M410.817 52.9709L412.362 65.653C412.642 67.9563 414.338 69.8357 416.6 70.3509L429.103 73.1977C433.46 74.1897 433.864 80.2389 429.677 81.8013L419.056 85.7653C416.675 86.6542 415.212 89.0596 415.52 91.5831L416.885 102.79C417.407 107.08 412.17 109.568 409.174 106.453L399.648 96.5469C398.129 94.9663 395.815 94.4396 393.761 95.2063L380.885 100.012C376.836 101.523 373.192 97.0125 375.521 93.3714L381.603 83.8603C382.973 81.7186 382.696 78.9173 380.934 77.0849L373.076 68.9133C369.979 65.6924 372.962 60.4144 377.319 61.4065L389.822 64.2533C392.084 64.7685 394.426 63.8084 395.676 61.8537L402.559 51.0905C404.832 47.5361 410.307 48.7827 410.817 52.9709Z" stroke="#98C3EC" stroke-opacity="0.87"/>
<path d="M409.295 59.6551L410.231 67.3406C410.512 69.6438 412.208 71.5232 414.47 72.0384L421.6 73.6619C425.957 74.6539 426.361 80.7031 422.174 82.2655L416.55 84.3647C414.168 85.2536 412.706 87.659 413.013 90.1825L413.77 96.3927C414.292 100.683 409.055 103.171 406.059 100.056L400.23 93.9938C398.71 92.4132 396.396 91.8865 394.342 92.6532L386.463 95.5938C382.414 97.1051 378.77 92.5946 381.098 88.9535L384.469 83.683C385.839 81.5413 385.562 78.7401 383.8 76.9076L379.639 72.5802C376.541 69.3593 379.524 64.0813 383.881 65.0734L391.011 66.6969C393.274 67.212 395.616 66.252 396.866 64.2973L401.037 57.7747C403.31 54.2203 408.785 55.4669 409.295 59.6551Z" fill="#FFE818" stroke="#FFE818"/>
<path d="M550.259 135.535C552.741 131.376 559.095 132.823 559.532 137.647L561.747 162.118C561.942 164.275 563.505 166.062 565.617 166.543L589.575 171.998C594.298 173.073 594.885 179.564 590.432 181.47L567.843 191.139C565.852 191.991 564.636 194.029 564.831 196.186L567.046 220.657C567.483 225.481 561.492 228.046 558.303 224.4L542.127 205.904C540.701 204.274 538.387 203.747 536.396 204.599L513.807 214.268C509.354 216.174 505.063 211.268 507.546 207.109L520.137 186.009C521.247 184.149 521.033 181.786 519.607 180.155L503.431 161.66C500.243 158.014 503.582 152.417 508.305 153.493L532.263 158.948C534.375 159.429 536.557 158.495 537.667 156.635L550.259 135.535Z" fill="white"/>
<path d="M559.034 137.692L561.249 162.163C561.464 164.536 563.182 166.501 565.506 167.03L589.464 172.485C593.714 173.453 594.243 179.295 590.236 181.01L567.646 190.679C565.456 191.616 564.118 193.858 564.333 196.231L566.548 220.702C566.941 225.044 561.549 227.352 558.679 224.071L542.503 205.575C540.935 203.781 538.39 203.202 536.199 204.139L513.61 213.808C509.602 215.524 505.741 211.109 507.975 207.365L520.567 186.265C521.788 184.219 521.552 181.62 519.984 179.826L503.808 161.33C500.938 158.049 503.944 153.012 508.194 153.98L532.152 159.436C534.476 159.965 536.875 158.937 538.096 156.891L550.688 135.791C552.922 132.048 558.641 133.35 559.034 137.692Z" stroke="#98C3EC" stroke-opacity="0.87"/>
<path d="M556.814 147.442L558.374 164.678C558.589 167.051 560.307 169.016 562.63 169.545L579.505 173.387C583.755 174.355 584.284 180.196 580.276 181.912L564.366 188.721C562.176 189.659 560.838 191.901 561.053 194.274L562.613 211.509C563.006 215.851 557.614 218.159 554.744 214.877L543.351 201.85C541.783 200.057 539.238 199.477 537.047 200.415L521.137 207.225C517.13 208.94 513.268 204.525 515.502 200.782L524.371 185.921C525.592 183.875 525.356 181.275 523.788 179.482L512.395 166.455C509.525 163.174 512.531 158.137 516.781 159.105L533.655 162.947C535.979 163.476 538.378 162.449 539.599 160.403L548.468 145.542C550.702 141.799 556.421 143.101 556.814 147.442Z" fill="#FFE818" stroke="#FFE818"/>
<path d="M77.2587 50.5352C79.7408 46.376 86.0952 47.8228 86.5319 52.6467L88.7471 77.1181C88.9424 79.2754 90.5046 81.0616 92.6167 81.5425L116.575 86.9978C121.298 88.0732 121.885 94.5637 117.432 96.4696L94.8432 106.139C92.8518 106.991 91.6357 109.029 91.831 111.186L94.0463 135.657C94.4829 140.481 88.4917 143.046 85.303 139.4L69.1269 120.904C67.7009 119.274 65.3871 118.747 63.3957 119.599L40.8066 129.268C36.3538 131.174 32.0634 126.268 34.5456 122.109L47.1373 101.009C48.2474 99.1491 48.0334 96.7858 46.6074 95.1553L30.4313 76.6596C27.2427 73.0137 30.5823 67.4174 35.3051 68.4927L59.2633 73.948C61.3753 74.4289 63.5569 73.4952 64.6669 71.6351L77.2587 50.5352Z" fill="white"/>
<path d="M86.0339 52.6918L88.2491 77.1632C88.464 79.5362 90.1824 81.5011 92.5057 82.0301L116.464 87.4853C120.714 88.4532 121.243 94.2946 117.236 96.01L94.6464 105.679C92.4559 106.616 91.1183 108.858 91.3331 111.231L93.5483 135.702C93.9413 140.044 88.5492 142.352 85.6793 139.071L69.5033 120.575C67.9346 118.781 65.3895 118.202 63.199 119.139L40.6099 128.808C36.6023 130.524 32.741 126.109 34.9749 122.365L47.5667 101.265C48.7877 99.2193 48.5524 96.6197 46.9838 94.8261L30.8077 76.3304C27.9379 73.0491 30.9436 68.0124 35.1941 68.9803L59.1523 74.4355C61.4755 74.9645 63.8752 73.9374 65.0963 71.8913L77.688 50.7915C79.9219 47.0481 85.6409 48.3503 86.0339 52.6918Z" stroke="#98C3EC" stroke-opacity="0.87"/>
<path d="M83.8138 62.4422L85.374 79.6778C85.5888 82.0508 87.3072 84.0156 89.6305 84.5446L106.505 88.3869C110.755 89.3547 111.284 95.1961 107.276 96.9115L91.3664 103.721C89.1759 104.659 87.8383 106.901 88.0531 109.274L89.6133 126.509C90.0063 130.851 84.6142 133.159 81.7443 129.877L70.3513 116.85C68.7827 115.057 66.2375 114.477 64.047 115.415L48.1372 122.225C44.1296 123.94 40.2683 119.525 42.5022 115.782L51.3708 100.921C52.5918 98.8749 52.3565 96.2753 50.7879 94.4817L39.3948 81.455C36.525 78.1736 39.5308 73.137 43.7812 74.1048L60.6553 77.947C62.9786 78.476 65.3783 77.4489 66.5993 75.4028L75.4679 60.5419C77.7018 56.7985 83.4208 58.1007 83.8138 62.4422Z" fill="#FFE818" stroke="#FFE818"/>
<defs>
<filter id="filter0_d_117_66" x="103.664" y="112.449" width="401.952" height="77.6729" filterUnits="userSpaceOnUse" color-interpolation-filters="sRGB">
<feFlood flood-opacity="0" result="BackgroundImageFix"/>
<feColorMatrix in="SourceAlpha" type="matrix" values="0 0 0 0 0 0 0 0 0 0 0 0 0 0 0 0 0 0 127 0" result="hardAlpha"/>
<feOffset dy="4"/>
<feGaussianBlur stdDeviation="2"/>
<feComposite in2="hardAlpha" operator="out"/>
<feColorMatrix type="matrix" values="0 0 0 0 0 0 0 0 0 0 0 0 0 0 0 0 0 0 0.25 0"/>
<feBlend mode="normal" in2="BackgroundImageFix" result="effect1_dropShadow_117_66"/>
<feBlend mode="normal" in="SourceGraphic" in2="effect1_dropShadow_117_66" result="shape"/>
</filter>
<linearGradient id="paint0_linear_117_66" x1="303" y1="0" x2="303" y2="168" gradientUnits="userSpaceOnUse">
<stop offset="0.577381" stop-color="#9FCDE9"/>
<stop offset="1" stop-color="#D9E1E7" stop-opacity="0.42"/>
</linearGradient>
</defs>
</svg>
